<?xml version="1.0" encoding="UTF-8" standalone="no"?>
<!DOCTYPE svg PUBLIC "-//W3C//DTD SVG 1.1//EN"
 "http://www.w3.org/Graphics/SVG/1.1/DTD/svg11.dtd">
<!-- Generated by graphviz version 2.47.0 (20210316.0004)
 -->
<!-- Title: dependencies Pages: 1 -->
<svg width="504pt" height="211pt"
 viewBox="0.00 0.00 504.00 211.00" xmlns="http://www.w3.org/2000/svg" xmlns:xlink="http://www.w3.org/1999/xlink">
<g id="graph0" class="graph" transform="scale(1 1) rotate(0) translate(4 207)">
<title>dependencies</title>
<polygon fill="white" stroke="transparent" points="-4,4 -4,-207 500,-207 500,4 -4,4"/>
<text text-anchor="start" x="227.01" y="-42.4" font-family="Times-12" font-weight="bold" font-size="14.00">Legend</text>
<polygon fill="#ffffb3" stroke="transparent" points="14,-10 14,-30 34,-30 34,-10 14,-10"/>
<text text-anchor="start" x="37.63" y="-15.4" font-family="Times-12" font-size="14.00"> &#160;Declarations</text>
<polygon fill="#8dd3c7" stroke="transparent" points="127,-10 127,-30 147,-30 147,-10 127,-10"/>
<text text-anchor="start" x="150.73" y="-15.4" font-family="Times-12" font-size="14.00"> &#160;Module</text>
<polygon fill="#80b1d3" stroke="transparent" points="213,-10 213,-30 233,-30 233,-10 213,-10"/>
<text text-anchor="start" x="236.78" y="-15.4" font-family="Times-12" font-size="14.00"> &#160;Bootstrap</text>
<polygon fill="#fdb462" stroke="transparent" points="310,-10 310,-30 330,-30 330,-10 310,-10"/>
<text text-anchor="start" x="333.67" y="-15.4" font-family="Times-12" font-size="14.00"> &#160;Providers</text>
<polygon fill="#fb8072" stroke="transparent" points="406,-10 406,-30 426,-30 426,-10 406,-10"/>
<text text-anchor="start" x="429.73" y="-15.4" font-family="Times-12" font-size="14.00"> &#160;Exports</text>
<g id="clust1" class="cluster">
<title>cluster_ColumnModule</title>
<polygon fill="none" stroke="black" stroke-dasharray="1,5" points="93,-70 93,-195 403,-195 403,-70 93,-70"/>
</g>
<g id="clust6" class="cluster">
<title>cluster_ColumnModule_providers</title>
<polygon fill="none" stroke="black" points="101,-78 101,-130 395,-130 395,-78 101,-78"/>
</g>
<!-- ColumnService -->
<g id="node1" class="node">
<title>ColumnService</title>
<ellipse fill="#fdb462" stroke="black" cx="316" cy="-104" rx="71.23" ry="18"/>
<text text-anchor="middle" x="316" y="-99.8" font-family="Times,serif" font-size="14.00">ColumnService</text>
</g>
<!-- ColumnModule -->
<g id="node3" class="node">
<title>ColumnModule</title>
<polygon fill="#8dd3c7" stroke="black" points="294.17,-187 291.17,-191 270.17,-191 267.17,-187 189.83,-187 189.83,-151 294.17,-151 294.17,-187"/>
<text text-anchor="middle" x="242" y="-164.8" font-family="Times,serif" font-size="14.00">ColumnModule</text>
</g>
<!-- ColumnService&#45;&gt;ColumnModule -->
<g id="edge1" class="edge">
<title>ColumnService&#45;&gt;ColumnModule</title>
<path fill="none" stroke="black" d="M269.61,-117.78C269.61,-117.78 269.61,-140.55 269.61,-140.55"/>
<polygon fill="black" stroke="black" points="266.11,-140.55 269.61,-150.55 273.11,-140.55 266.11,-140.55"/>
</g>
<!-- TaskService -->
<g id="node2" class="node">
<title>TaskService</title>
<ellipse fill="#fdb462" stroke="black" cx="168" cy="-104" rx="58.53" ry="18"/>
<text text-anchor="middle" x="168" y="-99.8" font-family="Times,serif" font-size="14.00">TaskService</text>
</g>
<!-- TaskService&#45;&gt;ColumnModule -->
<g id="edge2" class="edge">
<title>TaskService&#45;&gt;ColumnModule</title>
<path fill="none" stroke="black" d="M208.21,-117.15C208.21,-117.15 208.21,-140.69 208.21,-140.69"/>
<polygon fill="black" stroke="black" points="204.71,-140.69 208.21,-150.69 211.71,-140.69 204.71,-140.69"/>
</g>
</g>
</svg>
