<?xml version="1.0" encoding="UTF-8" standalone="no"?>
<!DOCTYPE svg PUBLIC "-//W3C//DTD SVG 1.1//EN"
 "http://www.w3.org/Graphics/SVG/1.1/DTD/svg11.dtd">
<!-- Generated by graphviz version 2.47.0 (20210316.0004)
 -->
<!-- Title: dependencies Pages: 1 -->
<svg width="504pt" height="211pt"
 viewBox="0.00 0.00 504.00 211.00" xmlns="http://www.w3.org/2000/svg" xmlns:xlink="http://www.w3.org/1999/xlink">
<g id="graph0" class="graph" transform="scale(1 1) rotate(0) translate(4 207)">
<title>dependencies</title>
<polygon fill="white" stroke="transparent" points="-4,4 -4,-207 500,-207 500,4 -4,4"/>
<text text-anchor="start" x="227.01" y="-42.4" font-family="Times-12" font-weight="bold" font-size="14.00">Legend</text>
<polygon fill="#ffffb3" stroke="transparent" points="14,-10 14,-30 34,-30 34,-10 14,-10"/>
<text text-anchor="start" x="37.63" y="-15.4" font-family="Times-12" font-size="14.00"> &#160;Declarations</text>
<polygon fill="#8dd3c7" stroke="transparent" points="127,-10 127,-30 147,-30 147,-10 127,-10"/>
<text text-anchor="start" x="150.73" y="-15.4" font-family="Times-12" font-size="14.00"> &#160;Module</text>
<polygon fill="#80b1d3" stroke="transparent" points="213,-10 213,-30 233,-30 233,-10 213,-10"/>
<text text-anchor="start" x="236.78" y="-15.4" font-family="Times-12" font-size="14.00"> &#160;Bootstrap</text>
<polygon fill="#fdb462" stroke="transparent" points="310,-10 310,-30 330,-30 330,-10 310,-10"/>
<text text-anchor="start" x="333.67" y="-15.4" font-family="Times-12" font-size="14.00"> &#160;Providers</text>
<polygon fill="#fb8072" stroke="transparent" points="406,-10 406,-30 426,-30 426,-10 406,-10"/>
<text text-anchor="start" x="429.73" y="-15.4" font-family="Times-12" font-size="14.00"> &#160;Exports</text>
<g id="clust1" class="cluster">
<title>cluster_BoardModule</title>
<polygon fill="none" stroke="black" stroke-dasharray="1,5" points="12,-70 12,-195 484,-195 484,-70 12,-70"/>
</g>
<g id="clust6" class="cluster">
<title>cluster_BoardModule_providers</title>
<polygon fill="none" stroke="black" points="20,-78 20,-130 476,-130 476,-78 20,-78"/>
</g>
<!-- BoardService -->
<g id="node1" class="node">
<title>BoardService</title>
<ellipse fill="#fdb462" stroke="black" cx="404" cy="-104" rx="63.68" ry="18"/>
<text text-anchor="middle" x="404" y="-99.8" font-family="Times,serif" font-size="14.00">BoardService</text>
</g>
<!-- BoardModule -->
<g id="node4" class="node">
<title>BoardModule</title>
<polygon fill="#8dd3c7" stroke="black" points="297.76,-187 294.76,-191 273.76,-191 270.76,-187 204.24,-187 204.24,-151 297.76,-151 297.76,-187"/>
<text text-anchor="middle" x="251" y="-164.8" font-family="Times,serif" font-size="14.00">BoardModule</text>
</g>
<!-- BoardService&#45;&gt;BoardModule -->
<g id="edge1" class="edge">
<title>BoardService&#45;&gt;BoardModule</title>
<path fill="none" stroke="black" d="M404,-122.11C404,-141.34 404,-169 404,-169 404,-169 308.15,-169 308.15,-169"/>
<polygon fill="black" stroke="black" points="308.15,-165.5 298.15,-169 308.15,-172.5 308.15,-165.5"/>
</g>
<!-- ColumnService -->
<g id="node2" class="node">
<title>ColumnService</title>
<ellipse fill="#fdb462" stroke="black" cx="251" cy="-104" rx="71.23" ry="18"/>
<text text-anchor="middle" x="251" y="-99.8" font-family="Times,serif" font-size="14.00">ColumnService</text>
</g>
<!-- ColumnService&#45;&gt;BoardModule -->
<g id="edge2" class="edge">
<title>ColumnService&#45;&gt;BoardModule</title>
<path fill="none" stroke="black" d="M251,-122.11C251,-122.11 251,-140.99 251,-140.99"/>
<polygon fill="black" stroke="black" points="247.5,-140.99 251,-150.99 254.5,-140.99 247.5,-140.99"/>
</g>
<!-- PrismaService -->
<g id="node3" class="node">
<title>PrismaService</title>
<ellipse fill="#fdb462" stroke="black" cx="95" cy="-104" rx="66.63" ry="18"/>
<text text-anchor="middle" x="95" y="-99.8" font-family="Times,serif" font-size="14.00">PrismaService</text>
</g>
<!-- PrismaService&#45;&gt;BoardModule -->
<g id="edge3" class="edge">
<title>PrismaService&#45;&gt;BoardModule</title>
<path fill="none" stroke="black" d="M95,-122.11C95,-141.34 95,-169 95,-169 95,-169 194.19,-169 194.19,-169"/>
<polygon fill="black" stroke="black" points="194.19,-172.5 204.19,-169 194.19,-165.5 194.19,-172.5"/>
</g>
</g>
</svg>
