<?xml version="1.0" encoding="UTF-8" standalone="no"?>
<!DOCTYPE svg PUBLIC "-//W3C//DTD SVG 1.1//EN"
 "http://www.w3.org/Graphics/SVG/1.1/DTD/svg11.dtd">
<!-- Generated by graphviz version 2.47.0 (20210316.0004)
 -->
<!-- Title: dependencies Pages: 1 -->
<svg width="1058pt" height="363pt"
 viewBox="0.00 0.00 1058.00 363.00" xmlns="http://www.w3.org/2000/svg" xmlns:xlink="http://www.w3.org/1999/xlink">
<g id="graph0" class="graph" transform="scale(1 1) rotate(0) translate(4 359)">
<title>dependencies</title>
<polygon fill="white" stroke="transparent" points="-4,4 -4,-359 1054,-359 1054,4 -4,4"/>
<text text-anchor="start" x="504.01" y="-42.4" font-family="Times-12" font-weight="bold" font-size="14.00">Legend</text>
<polygon fill="#ffffb3" stroke="transparent" points="291,-10 291,-30 311,-30 311,-10 291,-10"/>
<text text-anchor="start" x="314.63" y="-15.4" font-family="Times-12" font-size="14.00"> &#160;Declarations</text>
<polygon fill="#8dd3c7" stroke="transparent" points="404,-10 404,-30 424,-30 424,-10 404,-10"/>
<text text-anchor="start" x="427.73" y="-15.4" font-family="Times-12" font-size="14.00"> &#160;Module</text>
<polygon fill="#80b1d3" stroke="transparent" points="490,-10 490,-30 510,-30 510,-10 490,-10"/>
<text text-anchor="start" x="513.78" y="-15.4" font-family="Times-12" font-size="14.00"> &#160;Bootstrap</text>
<polygon fill="#fdb462" stroke="transparent" points="587,-10 587,-30 607,-30 607,-10 587,-10"/>
<text text-anchor="start" x="610.67" y="-15.4" font-family="Times-12" font-size="14.00"> &#160;Providers</text>
<polygon fill="#fb8072" stroke="transparent" points="683,-10 683,-30 703,-30 703,-10 683,-10"/>
<text text-anchor="start" x="706.73" y="-15.4" font-family="Times-12" font-size="14.00"> &#160;Exports</text>
<g id="clust1" class="cluster">
<title>cluster_AppModule</title>
<polygon fill="none" stroke="black" stroke-dasharray="1,5" points="51,-222 51,-347 770,-347 770,-222 51,-222"/>
</g>
<g id="clust3" class="cluster">
<title>cluster_AppModule_imports</title>
<polygon fill="none" stroke="black" points="197,-230 197,-282 762,-282 762,-230 197,-230"/>
</g>
<g id="clust6" class="cluster">
<title>cluster_AppModule_providers</title>
<polygon fill="none" stroke="black" points="59,-230 59,-282 189,-282 189,-230 59,-230"/>
</g>
<g id="clust7" class="cluster">
<title>cluster_AuthModule</title>
<polygon fill="none" stroke="black" stroke-dasharray="1,5" points="637,-146 637,-214 1041,-214 1041,-146 637,-146"/>
</g>
<g id="clust9" class="cluster">
<title>cluster_AuthModule_imports</title>
<polygon fill="none" stroke="black" points="919,-154 919,-206 1033,-206 1033,-154 919,-154"/>
</g>
<g id="clust12" class="cluster">
<title>cluster_AuthModule_providers</title>
<polygon fill="none" stroke="black" points="645,-154 645,-206 911,-206 911,-154 645,-154"/>
</g>
<g id="clust13" class="cluster">
<title>cluster_BoardModule</title>
<polygon fill="none" stroke="black" stroke-dasharray="1,5" points="8,-70 8,-138 480,-138 480,-70 8,-70"/>
</g>
<g id="clust18" class="cluster">
<title>cluster_BoardModule_providers</title>
<polygon fill="none" stroke="black" points="16,-78 16,-130 472,-130 472,-78 16,-78"/>
</g>
<g id="clust19" class="cluster">
<title>cluster_ColumnModule</title>
<polygon fill="none" stroke="black" stroke-dasharray="1,5" points="297,-146 297,-214 447,-214 447,-146 297,-146"/>
</g>
<g id="clust24" class="cluster">
<title>cluster_ColumnModule_providers</title>
<polygon fill="none" stroke="black" points="305,-154 305,-206 439,-206 439,-154 305,-154"/>
</g>
<g id="clust25" class="cluster">
<title>cluster_PrismaModule</title>
<polygon fill="none" stroke="black" stroke-dasharray="1,5" points="910,-222 910,-290 1042,-290 1042,-222 910,-222"/>
</g>
<g id="clust28" class="cluster">
<title>cluster_PrismaModule_exports</title>
<polygon fill="none" stroke="black" points="918,-230 918,-282 1034,-282 1034,-230 918,-230"/>
</g>
<g id="clust31" class="cluster">
<title>cluster_SubtaskModule</title>
<polygon fill="none" stroke="black" stroke-dasharray="1,5" points="455,-146 455,-214 629,-214 629,-146 455,-146"/>
</g>
<g id="clust36" class="cluster">
<title>cluster_SubtaskModule_providers</title>
<polygon fill="none" stroke="black" points="463,-154 463,-206 621,-206 621,-154 463,-154"/>
</g>
<!-- AuthModule -->
<g id="node1" class="node">
<title>AuthModule</title>
<polygon fill="#8dd3c7" stroke="black" points="753.55,-274 750.55,-278 729.55,-278 726.55,-274 666.45,-274 666.45,-238 753.55,-238 753.55,-274"/>
<text text-anchor="middle" x="710" y="-251.8" font-family="Times,serif" font-size="14.00">AuthModule</text>
</g>
<!-- AppModule -->
<g id="node6" class="node">
<title>AppModule</title>
<polygon fill="#8dd3c7" stroke="black" points="467.66,-339 464.66,-343 443.66,-343 440.66,-339 384.34,-339 384.34,-303 467.66,-303 467.66,-339"/>
<text text-anchor="middle" x="426" y="-316.8" font-family="Times,serif" font-size="14.00">AppModule</text>
</g>
<!-- AuthModule&#45;&gt;AppModule -->
<g id="edge1" class="edge">
<title>AuthModule&#45;&gt;AppModule</title>
<path fill="none" stroke="black" d="M710,-274.28C710,-295.32 710,-327 710,-327 710,-327 477.91,-327 477.91,-327"/>
<polygon fill="black" stroke="black" points="477.91,-323.5 467.91,-327 477.91,-330.5 477.91,-323.5"/>
</g>
<!-- BoardModule -->
<g id="node2" class="node">
<title>BoardModule</title>
<polygon fill="#8dd3c7" stroke="black" points="298.76,-274 295.76,-278 274.76,-278 271.76,-274 205.24,-274 205.24,-238 298.76,-238 298.76,-274"/>
<text text-anchor="middle" x="252" y="-251.8" font-family="Times,serif" font-size="14.00">BoardModule</text>
</g>
<!-- BoardModule&#45;&gt;AppModule -->
<g id="edge2" class="edge">
<title>BoardModule&#45;&gt;AppModule</title>
<path fill="none" stroke="black" d="M252,-274.02C252,-291.37 252,-315 252,-315 252,-315 374.32,-315 374.32,-315"/>
<polygon fill="black" stroke="black" points="374.32,-318.5 384.32,-315 374.32,-311.5 374.32,-318.5"/>
</g>
<!-- ColumnModule -->
<g id="node3" class="node">
<title>ColumnModule</title>
<polygon fill="#8dd3c7" stroke="black" points="421.17,-274 418.17,-278 397.17,-278 394.17,-274 316.83,-274 316.83,-238 421.17,-238 421.17,-274"/>
<text text-anchor="middle" x="369" y="-251.8" font-family="Times,serif" font-size="14.00">ColumnModule</text>
</g>
<!-- ColumnModule&#45;&gt;AppModule -->
<g id="edge3" class="edge">
<title>ColumnModule&#45;&gt;AppModule</title>
<path fill="none" stroke="black" d="M402.75,-274.11C402.75,-274.11 402.75,-292.99 402.75,-292.99"/>
<polygon fill="black" stroke="black" points="399.25,-292.99 402.75,-302.99 406.25,-292.99 399.25,-292.99"/>
</g>
<!-- SubtaskModule -->
<g id="node4" class="node">
<title>SubtaskModule</title>
<polygon fill="#8dd3c7" stroke="black" points="647.88,-274 644.88,-278 623.88,-278 620.88,-274 544.12,-274 544.12,-238 647.88,-238 647.88,-274"/>
<text text-anchor="middle" x="596" y="-251.8" font-family="Times,serif" font-size="14.00">SubtaskModule</text>
</g>
<!-- SubtaskModule&#45;&gt;AppModule -->
<g id="edge4" class="edge">
<title>SubtaskModule&#45;&gt;AppModule</title>
<path fill="none" stroke="black" d="M596,-274.02C596,-291.37 596,-315 596,-315 596,-315 478.02,-315 478.02,-315"/>
<polygon fill="black" stroke="black" points="478.02,-311.5 468.02,-315 478.02,-318.5 478.02,-311.5"/>
</g>
<!-- TaskModule -->
<g id="node5" class="node">
<title>TaskModule</title>
<polygon fill="#8dd3c7" stroke="black" points="526.26,-274 523.26,-278 502.26,-278 499.26,-274 439.74,-274 439.74,-238 526.26,-238 526.26,-274"/>
<text text-anchor="middle" x="483" y="-251.8" font-family="Times,serif" font-size="14.00">TaskModule</text>
</g>
<!-- TaskModule&#45;&gt;AppModule -->
<g id="edge5" class="edge">
<title>TaskModule&#45;&gt;AppModule</title>
<path fill="none" stroke="black" d="M453.72,-274.11C453.72,-274.11 453.72,-292.99 453.72,-292.99"/>
<polygon fill="black" stroke="black" points="450.22,-292.99 453.72,-302.99 457.22,-292.99 450.22,-292.99"/>
</g>
<!-- AppService -->
<g id="node7" class="node">
<title>AppService</title>
<ellipse fill="#fdb462" stroke="black" cx="124" cy="-256" rx="56.74" ry="18"/>
<text text-anchor="middle" x="124" y="-251.8" font-family="Times,serif" font-size="14.00">AppService</text>
</g>
<!-- AppService&#45;&gt;AppModule -->
<g id="edge6" class="edge">
<title>AppService&#45;&gt;AppModule</title>
<path fill="none" stroke="black" d="M124,-274.28C124,-295.32 124,-327 124,-327 124,-327 374.33,-327 374.33,-327"/>
<polygon fill="black" stroke="black" points="374.33,-330.5 384.33,-327 374.33,-323.5 374.33,-330.5"/>
</g>
<!-- PrismaModule -->
<g id="node8" class="node">
<title>PrismaModule</title>
<polygon fill="#8dd3c7" stroke="black" points="1025.43,-198 1022.43,-202 1001.43,-202 998.43,-198 926.57,-198 926.57,-162 1025.43,-162 1025.43,-198"/>
<text text-anchor="middle" x="976" y="-175.8" font-family="Times,serif" font-size="14.00">PrismaModule</text>
</g>
<!-- PrismaModule&#45;&gt;AuthModule -->
<g id="edge7" class="edge">
<title>PrismaModule&#45;&gt;AuthModule</title>
<path fill="none" stroke="black" d="M926.7,-180C919.56,-180 914.56,-180 914.56,-180 914.56,-180 914.56,-262 914.56,-262 914.56,-262 763.63,-262 763.63,-262"/>
<polygon fill="black" stroke="black" points="763.63,-258.5 753.63,-262 763.63,-265.5 763.63,-258.5"/>
</g>
<!-- PrismaService  -->
<g id="node15" class="node">
<title>PrismaService </title>
<polygon fill="#fb8072" stroke="black" points="1026.36,-274 925.64,-274 925.64,-238 1026.36,-238 1026.36,-274"/>
<text text-anchor="middle" x="976" y="-251.8" font-family="Times,serif" font-size="14.00">PrismaService </text>
</g>
<!-- PrismaModule&#45;&gt;PrismaService  -->
<g id="edge15" class="edge">
<title>PrismaModule&#45;&gt;PrismaService </title>
<path fill="none" stroke="black" stroke-dasharray="5,2" d="M976,-198.01C976,-198.01 976,-227.85 976,-227.85"/>
<polygon fill="black" stroke="black" points="972.5,-227.85 976,-237.85 979.5,-227.85 972.5,-227.85"/>
</g>
<!-- AuthService -->
<g id="node9" class="node">
<title>AuthService</title>
<ellipse fill="#fdb462" stroke="black" cx="844" cy="-180" rx="59.11" ry="18"/>
<text text-anchor="middle" x="844" y="-175.8" font-family="Times,serif" font-size="14.00">AuthService</text>
</g>
<!-- AuthService&#45;&gt;AuthModule -->
<g id="edge8" class="edge">
<title>AuthService&#45;&gt;AuthModule</title>
<path fill="none" stroke="black" d="M844,-198.03C844,-218.77 844,-250 844,-250 844,-250 763.88,-250 763.88,-250"/>
<polygon fill="black" stroke="black" points="763.88,-246.5 753.88,-250 763.88,-253.5 763.88,-246.5"/>
</g>
<!-- JwtStrategy -->
<g id="node10" class="node">
<title>JwtStrategy</title>
<ellipse fill="#fdb462" stroke="black" cx="710" cy="-180" rx="56.76" ry="18"/>
<text text-anchor="middle" x="710" y="-175.8" font-family="Times,serif" font-size="14.00">JwtStrategy</text>
</g>
<!-- JwtStrategy&#45;&gt;AuthModule -->
<g id="edge9" class="edge">
<title>JwtStrategy&#45;&gt;AuthModule</title>
<path fill="none" stroke="black" d="M710,-198.01C710,-198.01 710,-227.85 710,-227.85"/>
<polygon fill="black" stroke="black" points="706.5,-227.85 710,-237.85 713.5,-227.85 706.5,-227.85"/>
</g>
<!-- BoardService -->
<g id="node11" class="node">
<title>BoardService</title>
<ellipse fill="#fdb462" stroke="black" cx="88" cy="-104" rx="63.68" ry="18"/>
<text text-anchor="middle" x="88" y="-99.8" font-family="Times,serif" font-size="14.00">BoardService</text>
</g>
<!-- BoardService&#45;&gt;BoardModule -->
<g id="edge10" class="edge">
<title>BoardService&#45;&gt;BoardModule</title>
<path fill="none" stroke="black" d="M109.49,-121.12C109.49,-128.73 109.49,-136 109.49,-136 109.49,-136 228.56,-136 228.56,-136 228.56,-136 228.56,-227.77 228.56,-227.77"/>
<polygon fill="black" stroke="black" points="225.06,-227.77 228.56,-237.77 232.06,-227.77 225.06,-227.77"/>
</g>
<!-- ColumnService -->
<g id="node12" class="node">
<title>ColumnService</title>
<ellipse fill="#fdb462" stroke="black" cx="241" cy="-104" rx="71.23" ry="18"/>
<text text-anchor="middle" x="241" y="-99.8" font-family="Times,serif" font-size="14.00">ColumnService</text>
</g>
<!-- ColumnService&#45;&gt;BoardModule -->
<g id="edge11" class="edge">
<title>ColumnService&#45;&gt;BoardModule</title>
<path fill="none" stroke="black" d="M252,-122.03C252,-122.03 252,-227.99 252,-227.99"/>
<polygon fill="black" stroke="black" points="248.5,-227.99 252,-237.99 255.5,-227.99 248.5,-227.99"/>
</g>
<!-- ColumnService&#45;&gt;ColumnModule -->
<g id="edge13" class="edge">
<title>ColumnService&#45;&gt;ColumnModule</title>
<path fill="none" stroke="black" d="M305.5,-111.75C305.5,-142.72 305.5,-256 305.5,-256 305.5,-256 306.6,-256 306.6,-256"/>
<polygon fill="black" stroke="black" points="306.56,-259.5 316.56,-256 306.56,-252.5 306.56,-259.5"/>
</g>
<!-- PrismaService -->
<g id="node13" class="node">
<title>PrismaService</title>
<ellipse fill="#fdb462" stroke="black" cx="397" cy="-104" rx="66.63" ry="18"/>
<text text-anchor="middle" x="397" y="-99.8" font-family="Times,serif" font-size="14.00">PrismaService</text>
</g>
<!-- PrismaService&#45;&gt;BoardModule -->
<g id="edge12" class="edge">
<title>PrismaService&#45;&gt;BoardModule</title>
<path fill="none" stroke="black" d="M380.47,-121.53C380.47,-134.16 380.47,-149 380.47,-149 380.47,-149 275.44,-149 275.44,-149 275.44,-149 275.44,-227.85 275.44,-227.85"/>
<polygon fill="black" stroke="black" points="271.94,-227.85 275.44,-237.85 278.94,-227.85 271.94,-227.85"/>
</g>
<!-- PrismaService&#45;&gt;PrismaModule -->
<g id="edge16" class="edge">
<title>PrismaService&#45;&gt;PrismaModule</title>
<path fill="none" stroke="black" d="M463.98,-104C616.4,-104 976,-104 976,-104 976,-104 976,-151.99 976,-151.99"/>
<polygon fill="black" stroke="black" points="972.5,-151.99 976,-161.99 979.5,-151.99 972.5,-151.99"/>
</g>
<!-- TaskService -->
<g id="node14" class="node">
<title>TaskService</title>
<ellipse fill="#fdb462" stroke="black" cx="372" cy="-180" rx="58.53" ry="18"/>
<text text-anchor="middle" x="372" y="-175.8" font-family="Times,serif" font-size="14.00">TaskService</text>
</g>
<!-- TaskService&#45;&gt;ColumnModule -->
<g id="edge14" class="edge">
<title>TaskService&#45;&gt;ColumnModule</title>
<path fill="none" stroke="black" d="M369,-198.01C369,-198.01 369,-227.85 369,-227.85"/>
<polygon fill="black" stroke="black" points="365.5,-227.85 369,-237.85 372.5,-227.85 365.5,-227.85"/>
</g>
<!-- TaskService&#45;&gt;TaskModule -->
<g id="edge19" class="edge">
<title>TaskService&#45;&gt;TaskModule</title>
<path fill="none" stroke="black" d="M426.05,-187.29C426.05,-206.31 426.05,-256 426.05,-256 426.05,-256 429.54,-256 429.54,-256"/>
<polygon fill="black" stroke="black" points="429.54,-259.5 439.54,-256 429.54,-252.5 429.54,-259.5"/>
</g>
<!-- SubtaskService -->
<g id="node16" class="node">
<title>SubtaskService</title>
<ellipse fill="#fdb462" stroke="black" cx="542" cy="-180" rx="70.64" ry="18"/>
<text text-anchor="middle" x="542" y="-175.8" font-family="Times,serif" font-size="14.00">SubtaskService</text>
</g>
<!-- SubtaskService&#45;&gt;SubtaskModule -->
<g id="edge17" class="edge">
<title>SubtaskService&#45;&gt;SubtaskModule</title>
<path fill="none" stroke="black" d="M578.32,-195.75C578.32,-195.75 578.32,-227.87 578.32,-227.87"/>
<polygon fill="black" stroke="black" points="574.82,-227.87 578.32,-237.87 581.82,-227.87 574.82,-227.87"/>
</g>
<!-- SubtaskService&#45;&gt;TaskModule -->
<g id="edge18" class="edge">
<title>SubtaskService&#45;&gt;TaskModule</title>
<path fill="none" stroke="black" d="M498.9,-194.3C498.9,-194.3 498.9,-227.73 498.9,-227.73"/>
<polygon fill="black" stroke="black" points="495.4,-227.73 498.9,-237.73 502.4,-227.73 495.4,-227.73"/>
</g>
</g>
</svg>
