<?xml version="1.0" encoding="UTF-8" standalone="no"?>
<!DOCTYPE svg PUBLIC "-//W3C//DTD SVG 1.1//EN"
 "http://www.w3.org/Graphics/SVG/1.1/DTD/svg11.dtd">
<!-- Generated by graphviz version 2.47.0 (20210316.0004)
 -->
<!-- Title: dependencies Pages: 1 -->
<svg width="504pt" height="211pt"
 viewBox="0.00 0.00 504.00 211.00" xmlns="http://www.w3.org/2000/svg" xmlns:xlink="http://www.w3.org/1999/xlink">
<g id="graph0" class="graph" transform="scale(1 1) rotate(0) translate(4 207)">
<title>dependencies</title>
<polygon fill="white" stroke="transparent" points="-4,4 -4,-207 500,-207 500,4 -4,4"/>
<text text-anchor="start" x="227.01" y="-42.4" font-family="Times-12" font-weight="bold" font-size="14.00">Legend</text>
<polygon fill="#ffffb3" stroke="transparent" points="14,-10 14,-30 34,-30 34,-10 14,-10"/>
<text text-anchor="start" x="37.63" y="-15.4" font-family="Times-12" font-size="14.00"> &#160;Declarations</text>
<polygon fill="#8dd3c7" stroke="transparent" points="127,-10 127,-30 147,-30 147,-10 127,-10"/>
<text text-anchor="start" x="150.73" y="-15.4" font-family="Times-12" font-size="14.00"> &#160;Module</text>
<polygon fill="#80b1d3" stroke="transparent" points="213,-10 213,-30 233,-30 233,-10 213,-10"/>
<text text-anchor="start" x="236.78" y="-15.4" font-family="Times-12" font-size="14.00"> &#160;Bootstrap</text>
<polygon fill="#fdb462" stroke="transparent" points="310,-10 310,-30 330,-30 330,-10 310,-10"/>
<text text-anchor="start" x="333.67" y="-15.4" font-family="Times-12" font-size="14.00"> &#160;Providers</text>
<polygon fill="#fb8072" stroke="transparent" points="406,-10 406,-30 426,-30 426,-10 406,-10"/>
<text text-anchor="start" x="429.73" y="-15.4" font-family="Times-12" font-size="14.00"> &#160;Exports</text>
<g id="clust1" class="cluster">
<title>cluster_TaskModule</title>
<polygon fill="none" stroke="black" stroke-dasharray="1,5" points="93.5,-70 93.5,-195 402.5,-195 402.5,-70 93.5,-70"/>
</g>
<g id="clust6" class="cluster">
<title>cluster_TaskModule_providers</title>
<polygon fill="none" stroke="black" points="101.5,-78 101.5,-130 394.5,-130 394.5,-78 101.5,-78"/>
</g>
<!-- SubtaskService -->
<g id="node1" class="node">
<title>SubtaskService</title>
<ellipse fill="#fdb462" stroke="black" cx="315.5" cy="-104" rx="70.64" ry="18"/>
<text text-anchor="middle" x="315.5" y="-99.8" font-family="Times,serif" font-size="14.00">SubtaskService</text>
</g>
<!-- TaskModule -->
<g id="node3" class="node">
<title>TaskModule</title>
<polygon fill="#8dd3c7" stroke="black" points="284.76,-187 281.76,-191 260.76,-191 257.76,-187 198.24,-187 198.24,-151 284.76,-151 284.76,-187"/>
<text text-anchor="middle" x="241.5" y="-164.8" font-family="Times,serif" font-size="14.00">TaskModule</text>
</g>
<!-- SubtaskService&#45;&gt;TaskModule -->
<g id="edge1" class="edge">
<title>SubtaskService&#45;&gt;TaskModule</title>
<path fill="none" stroke="black" d="M264.9,-116.84C264.9,-116.84 264.9,-140.52 264.9,-140.52"/>
<polygon fill="black" stroke="black" points="261.4,-140.52 264.9,-150.52 268.4,-140.52 261.4,-140.52"/>
</g>
<!-- TaskService -->
<g id="node2" class="node">
<title>TaskService</title>
<ellipse fill="#fdb462" stroke="black" cx="168.5" cy="-104" rx="58.53" ry="18"/>
<text text-anchor="middle" x="168.5" y="-99.8" font-family="Times,serif" font-size="14.00">TaskService</text>
</g>
<!-- TaskService&#45;&gt;TaskModule -->
<g id="edge2" class="edge">
<title>TaskService&#45;&gt;TaskModule</title>
<path fill="none" stroke="black" d="M212.69,-115.92C212.69,-115.92 212.69,-140.77 212.69,-140.77"/>
<polygon fill="black" stroke="black" points="209.19,-140.77 212.69,-150.77 216.19,-140.77 209.19,-140.77"/>
</g>
</g>
</svg>
