<?xml version="1.0" encoding="UTF-8" standalone="no"?>
<!DOCTYPE svg PUBLIC "-//W3C//DTD SVG 1.1//EN"
 "http://www.w3.org/Graphics/SVG/1.1/DTD/svg11.dtd">
<!-- Generated by graphviz version 2.47.0 (20210316.0004)
 -->
<!-- Title: dependencies Pages: 1 -->
<svg width="742pt" height="211pt"
 viewBox="0.00 0.00 742.00 211.00" xmlns="http://www.w3.org/2000/svg" xmlns:xlink="http://www.w3.org/1999/xlink">
<g id="graph0" class="graph" transform="scale(1 1) rotate(0) translate(4 207)">
<title>dependencies</title>
<polygon fill="white" stroke="transparent" points="-4,4 -4,-207 738,-207 738,4 -4,4"/>
<text text-anchor="start" x="346.01" y="-42.4" font-family="Times-12" font-weight="bold" font-size="14.00">Legend</text>
<polygon fill="#ffffb3" stroke="transparent" points="133,-10 133,-30 153,-30 153,-10 133,-10"/>
<text text-anchor="start" x="156.63" y="-15.4" font-family="Times-12" font-size="14.00"> &#160;Declarations</text>
<polygon fill="#8dd3c7" stroke="transparent" points="246,-10 246,-30 266,-30 266,-10 246,-10"/>
<text text-anchor="start" x="269.73" y="-15.4" font-family="Times-12" font-size="14.00"> &#160;Module</text>
<polygon fill="#80b1d3" stroke="transparent" points="332,-10 332,-30 352,-30 352,-10 332,-10"/>
<text text-anchor="start" x="355.78" y="-15.4" font-family="Times-12" font-size="14.00"> &#160;Bootstrap</text>
<polygon fill="#fdb462" stroke="transparent" points="429,-10 429,-30 449,-30 449,-10 429,-10"/>
<text text-anchor="start" x="452.67" y="-15.4" font-family="Times-12" font-size="14.00"> &#160;Providers</text>
<polygon fill="#fb8072" stroke="transparent" points="525,-10 525,-30 545,-30 545,-10 525,-10"/>
<text text-anchor="start" x="548.73" y="-15.4" font-family="Times-12" font-size="14.00"> &#160;Exports</text>
<g id="clust1" class="cluster">
<title>cluster_AppModule</title>
<polygon fill="none" stroke="black" stroke-dasharray="1,5" points="8,-70 8,-195 726,-195 726,-70 8,-70"/>
</g>
<g id="clust3" class="cluster">
<title>cluster_AppModule_imports</title>
<polygon fill="none" stroke="black" points="154,-78 154,-130 718,-130 718,-78 154,-78"/>
</g>
<g id="clust6" class="cluster">
<title>cluster_AppModule_providers</title>
<polygon fill="none" stroke="black" points="16,-78 16,-130 146,-130 146,-78 16,-78"/>
</g>
<!-- AuthModule -->
<g id="node1" class="node">
<title>AuthModule</title>
<polygon fill="#8dd3c7" stroke="black" points="709.55,-122 706.55,-126 685.55,-126 682.55,-122 622.45,-122 622.45,-86 709.55,-86 709.55,-122"/>
<text text-anchor="middle" x="666" y="-99.8" font-family="Times,serif" font-size="14.00">AuthModule</text>
</g>
<!-- AppModule -->
<g id="node6" class="node">
<title>AppModule</title>
<polygon fill="#8dd3c7" stroke="black" points="420.66,-187 417.66,-191 396.66,-191 393.66,-187 337.34,-187 337.34,-151 420.66,-151 420.66,-187"/>
<text text-anchor="middle" x="379" y="-164.8" font-family="Times,serif" font-size="14.00">AppModule</text>
</g>
<!-- AuthModule&#45;&gt;AppModule -->
<g id="edge1" class="edge">
<title>AuthModule&#45;&gt;AppModule</title>
<path fill="none" stroke="black" d="M666,-122.28C666,-143.32 666,-175 666,-175 666,-175 430.73,-175 430.73,-175"/>
<polygon fill="black" stroke="black" points="430.73,-171.5 420.73,-175 430.73,-178.5 430.73,-171.5"/>
</g>
<!-- BoardModule -->
<g id="node2" class="node">
<title>BoardModule</title>
<polygon fill="#8dd3c7" stroke="black" points="603.76,-122 600.76,-126 579.76,-126 576.76,-122 510.24,-122 510.24,-86 603.76,-86 603.76,-122"/>
<text text-anchor="middle" x="557" y="-99.8" font-family="Times,serif" font-size="14.00">BoardModule</text>
</g>
<!-- BoardModule&#45;&gt;AppModule -->
<g id="edge2" class="edge">
<title>BoardModule&#45;&gt;AppModule</title>
<path fill="none" stroke="black" d="M557,-122.02C557,-139.37 557,-163 557,-163 557,-163 430.73,-163 430.73,-163"/>
<polygon fill="black" stroke="black" points="430.73,-159.5 420.73,-163 430.73,-166.5 430.73,-159.5"/>
</g>
<!-- ColumnModule -->
<g id="node3" class="node">
<title>ColumnModule</title>
<polygon fill="#8dd3c7" stroke="black" points="492.17,-122 489.17,-126 468.17,-126 465.17,-122 387.83,-122 387.83,-86 492.17,-86 492.17,-122"/>
<text text-anchor="middle" x="440" y="-99.8" font-family="Times,serif" font-size="14.00">ColumnModule</text>
</g>
<!-- ColumnModule&#45;&gt;AppModule -->
<g id="edge3" class="edge">
<title>ColumnModule&#45;&gt;AppModule</title>
<path fill="none" stroke="black" d="M404.25,-122.11C404.25,-122.11 404.25,-140.99 404.25,-140.99"/>
<polygon fill="black" stroke="black" points="400.75,-140.99 404.25,-150.99 407.75,-140.99 400.75,-140.99"/>
</g>
<!-- SubtaskModule -->
<g id="node4" class="node">
<title>SubtaskModule</title>
<polygon fill="#8dd3c7" stroke="black" points="369.88,-122 366.88,-126 345.88,-126 342.88,-122 266.12,-122 266.12,-86 369.88,-86 369.88,-122"/>
<text text-anchor="middle" x="318" y="-99.8" font-family="Times,serif" font-size="14.00">SubtaskModule</text>
</g>
<!-- SubtaskModule&#45;&gt;AppModule -->
<g id="edge4" class="edge">
<title>SubtaskModule&#45;&gt;AppModule</title>
<path fill="none" stroke="black" d="M353.56,-122.11C353.56,-122.11 353.56,-140.99 353.56,-140.99"/>
<polygon fill="black" stroke="black" points="350.06,-140.99 353.56,-150.99 357.06,-140.99 350.06,-140.99"/>
</g>
<!-- TaskModule -->
<g id="node5" class="node">
<title>TaskModule</title>
<polygon fill="#8dd3c7" stroke="black" points="248.26,-122 245.26,-126 224.26,-126 221.26,-122 161.74,-122 161.74,-86 248.26,-86 248.26,-122"/>
<text text-anchor="middle" x="205" y="-99.8" font-family="Times,serif" font-size="14.00">TaskModule</text>
</g>
<!-- TaskModule&#45;&gt;AppModule -->
<g id="edge5" class="edge">
<title>TaskModule&#45;&gt;AppModule</title>
<path fill="none" stroke="black" d="M205,-122.02C205,-139.37 205,-163 205,-163 205,-163 327.32,-163 327.32,-163"/>
<polygon fill="black" stroke="black" points="327.32,-166.5 337.32,-163 327.32,-159.5 327.32,-166.5"/>
</g>
<!-- AppService -->
<g id="node7" class="node">
<title>AppService</title>
<ellipse fill="#fdb462" stroke="black" cx="81" cy="-104" rx="56.74" ry="18"/>
<text text-anchor="middle" x="81" y="-99.8" font-family="Times,serif" font-size="14.00">AppService</text>
</g>
<!-- AppService&#45;&gt;AppModule -->
<g id="edge6" class="edge">
<title>AppService&#45;&gt;AppModule</title>
<path fill="none" stroke="black" d="M81,-122.28C81,-143.32 81,-175 81,-175 81,-175 327.25,-175 327.25,-175"/>
<polygon fill="black" stroke="black" points="327.25,-178.5 337.25,-175 327.25,-171.5 327.25,-178.5"/>
</g>
</g>
</svg>
