<?xml version="1.0" encoding="UTF-8" standalone="no"?>
<!DOCTYPE svg PUBLIC "-//W3C//DTD SVG 1.1//EN"
 "http://www.w3.org/Graphics/SVG/1.1/DTD/svg11.dtd">
<!-- Generated by graphviz version 2.47.0 (20210316.0004)
 -->
<!-- Title: dependencies Pages: 1 -->
<svg width="742pt" height="211pt"
 viewBox="0.00 0.00 742.00 211.00" xmlns="http://www.w3.org/2000/svg" xmlns:xlink="http://www.w3.org/1999/xlink">
<g id="graph0" class="graph" transform="scale(1 1) rotate(0) translate(4 207)">
<title>dependencies</title>
<polygon fill="white" stroke="transparent" points="-4,4 -4,-207 738,-207 738,4 -4,4"/>
<text text-anchor="start" x="346.01" y="-42.4" font-family="Times-12" font-weight="bold" font-size="14.00">Legend</text>
<polygon fill="#ffffb3" stroke="transparent" points="133,-10 133,-30 153,-30 153,-10 133,-10"/>
<text text-anchor="start" x="156.63" y="-15.4" font-family="Times-12" font-size="14.00"> &#160;Declarations</text>
<polygon fill="#8dd3c7" stroke="transparent" points="246,-10 246,-30 266,-30 266,-10 246,-10"/>
<text text-anchor="start" x="269.73" y="-15.4" font-family="Times-12" font-size="14.00"> &#160;Module</text>
<polygon fill="#80b1d3" stroke="transparent" points="332,-10 332,-30 352,-30 352,-10 332,-10"/>
<text text-anchor="start" x="355.78" y="-15.4" font-family="Times-12" font-size="14.00"> &#160;Bootstrap</text>
<polygon fill="#fdb462" stroke="transparent" points="429,-10 429,-30 449,-30 449,-10 429,-10"/>
<text text-anchor="start" x="452.67" y="-15.4" font-family="Times-12" font-size="14.00"> &#160;Providers</text>
<polygon fill="#fb8072" stroke="transparent" points="525,-10 525,-30 545,-30 545,-10 525,-10"/>
<text text-anchor="start" x="548.73" y="-15.4" font-family="Times-12" font-size="14.00"> &#160;Exports</text>
<g id="clust1" class="cluster">
<title>cluster_AppModule</title>
<polygon fill="none" stroke="black" stroke-dasharray="1,5" points="8,-70 8,-195 726,-195 726,-70 8,-70"/>
</g>
<g id="clust6" class="cluster">
<title>cluster_AppModule_providers</title>
<polygon fill="none" stroke="black" points="588,-78 588,-130 718,-130 718,-78 588,-78"/>
</g>
<g id="clust3" class="cluster">
<title>cluster_AppModule_imports</title>
<polygon fill="none" stroke="black" points="16,-78 16,-130 580,-130 580,-78 16,-78"/>
</g>
<!-- AuthModule -->
<g id="node1" class="node">
<title>AuthModule</title>
<polygon fill="#8dd3c7" stroke="black" points="571.55,-122 568.55,-126 547.55,-126 544.55,-122 484.45,-122 484.45,-86 571.55,-86 571.55,-122"/>
<text text-anchor="middle" x="528" y="-99.8" font-family="Times,serif" font-size="14.00">AuthModule</text>
</g>
<!-- AppModule -->
<g id="node6" class="node">
<title>AppModule</title>
<polygon fill="#8dd3c7" stroke="black" points="401.66,-187 398.66,-191 377.66,-191 374.66,-187 318.34,-187 318.34,-151 401.66,-151 401.66,-187"/>
<text text-anchor="middle" x="360" y="-164.8" font-family="Times,serif" font-size="14.00">AppModule</text>
</g>
<!-- AuthModule&#45;&gt;AppModule -->
<g id="edge1" class="edge">
<title>AuthModule&#45;&gt;AppModule</title>
<path fill="none" stroke="black" d="M528,-122.02C528,-139.37 528,-163 528,-163 528,-163 411.96,-163 411.96,-163"/>
<polygon fill="black" stroke="black" points="411.96,-159.5 401.96,-163 411.96,-166.5 411.96,-159.5"/>
</g>
<!-- BoardModule -->
<g id="node2" class="node">
<title>BoardModule</title>
<polygon fill="#8dd3c7" stroke="black" points="465.76,-122 462.76,-126 441.76,-126 438.76,-122 372.24,-122 372.24,-86 465.76,-86 465.76,-122"/>
<text text-anchor="middle" x="419" y="-99.8" font-family="Times,serif" font-size="14.00">BoardModule</text>
</g>
<!-- BoardModule&#45;&gt;AppModule -->
<g id="edge2" class="edge">
<title>BoardModule&#45;&gt;AppModule</title>
<path fill="none" stroke="black" d="M386.97,-122.11C386.97,-122.11 386.97,-140.99 386.97,-140.99"/>
<polygon fill="black" stroke="black" points="383.47,-140.99 386.97,-150.99 390.47,-140.99 383.47,-140.99"/>
</g>
<!-- ColumnModule -->
<g id="node3" class="node">
<title>ColumnModule</title>
<polygon fill="#8dd3c7" stroke="black" points="354.17,-122 351.17,-126 330.17,-126 327.17,-122 249.83,-122 249.83,-86 354.17,-86 354.17,-122"/>
<text text-anchor="middle" x="302" y="-99.8" font-family="Times,serif" font-size="14.00">ColumnModule</text>
</g>
<!-- ColumnModule&#45;&gt;AppModule -->
<g id="edge3" class="edge">
<title>ColumnModule&#45;&gt;AppModule</title>
<path fill="none" stroke="black" d="M336.25,-122.11C336.25,-122.11 336.25,-140.99 336.25,-140.99"/>
<polygon fill="black" stroke="black" points="332.75,-140.99 336.25,-150.99 339.75,-140.99 332.75,-140.99"/>
</g>
<!-- SubtaskModule -->
<g id="node4" class="node">
<title>SubtaskModule</title>
<polygon fill="#8dd3c7" stroke="black" points="231.88,-122 228.88,-126 207.88,-126 204.88,-122 128.12,-122 128.12,-86 231.88,-86 231.88,-122"/>
<text text-anchor="middle" x="180" y="-99.8" font-family="Times,serif" font-size="14.00">SubtaskModule</text>
</g>
<!-- SubtaskModule&#45;&gt;AppModule -->
<g id="edge4" class="edge">
<title>SubtaskModule&#45;&gt;AppModule</title>
<path fill="none" stroke="black" d="M180,-122.02C180,-139.37 180,-163 180,-163 180,-163 308.25,-163 308.25,-163"/>
<polygon fill="black" stroke="black" points="308.25,-166.5 318.25,-163 308.25,-159.5 308.25,-166.5"/>
</g>
<!-- TaskModule -->
<g id="node5" class="node">
<title>TaskModule</title>
<polygon fill="#8dd3c7" stroke="black" points="110.26,-122 107.26,-126 86.26,-126 83.26,-122 23.74,-122 23.74,-86 110.26,-86 110.26,-122"/>
<text text-anchor="middle" x="67" y="-99.8" font-family="Times,serif" font-size="14.00">TaskModule</text>
</g>
<!-- TaskModule&#45;&gt;AppModule -->
<g id="edge5" class="edge">
<title>TaskModule&#45;&gt;AppModule</title>
<path fill="none" stroke="black" d="M67,-122.28C67,-143.32 67,-175 67,-175 67,-175 308.33,-175 308.33,-175"/>
<polygon fill="black" stroke="black" points="308.33,-178.5 318.33,-175 308.33,-171.5 308.33,-178.5"/>
</g>
<!-- AppService -->
<g id="node7" class="node">
<title>AppService</title>
<ellipse fill="#fdb462" stroke="black" cx="653" cy="-104" rx="56.74" ry="18"/>
<text text-anchor="middle" x="653" y="-99.8" font-family="Times,serif" font-size="14.00">AppService</text>
</g>
<!-- AppService&#45;&gt;AppModule -->
<g id="edge6" class="edge">
<title>AppService&#45;&gt;AppModule</title>
<path fill="none" stroke="black" d="M653,-122.28C653,-143.32 653,-175 653,-175 653,-175 411.67,-175 411.67,-175"/>
<polygon fill="black" stroke="black" points="411.67,-171.5 401.67,-175 411.67,-178.5 411.67,-171.5"/>
</g>
</g>
</svg>
