<?xml version="1.0" encoding="UTF-8" standalone="no"?>
<!DOCTYPE svg PUBLIC "-//W3C//DTD SVG 1.1//EN"
 "http://www.w3.org/Graphics/SVG/1.1/DTD/svg11.dtd">
<!-- Generated by graphviz version 2.47.0 (20210316.0004)
 -->
<!-- Title: dependencies Pages: 1 -->
<svg width="586pt" height="211pt"
 viewBox="0.00 0.00 586.00 211.00" xmlns="http://www.w3.org/2000/svg" xmlns:xlink="http://www.w3.org/1999/xlink">
<g id="graph0" class="graph" transform="scale(1 1) rotate(0) translate(4 207)">
<title>dependencies</title>
<polygon fill="white" stroke="transparent" points="-4,4 -4,-207 582,-207 582,4 -4,4"/>
<text text-anchor="start" x="268.01" y="-42.4" font-family="Times-12" font-weight="bold" font-size="14.00">Legend</text>
<polygon fill="#ffffb3" stroke="transparent" points="55,-10 55,-30 75,-30 75,-10 55,-10"/>
<text text-anchor="start" x="78.63" y="-15.4" font-family="Times-12" font-size="14.00"> &#160;Declarations</text>
<polygon fill="#8dd3c7" stroke="transparent" points="168,-10 168,-30 188,-30 188,-10 168,-10"/>
<text text-anchor="start" x="191.73" y="-15.4" font-family="Times-12" font-size="14.00"> &#160;Module</text>
<polygon fill="#80b1d3" stroke="transparent" points="254,-10 254,-30 274,-30 274,-10 254,-10"/>
<text text-anchor="start" x="277.78" y="-15.4" font-family="Times-12" font-size="14.00"> &#160;Bootstrap</text>
<polygon fill="#fdb462" stroke="transparent" points="351,-10 351,-30 371,-30 371,-10 351,-10"/>
<text text-anchor="start" x="374.67" y="-15.4" font-family="Times-12" font-size="14.00"> &#160;Providers</text>
<polygon fill="#fb8072" stroke="transparent" points="447,-10 447,-30 467,-30 467,-10 447,-10"/>
<text text-anchor="start" x="470.73" y="-15.4" font-family="Times-12" font-size="14.00"> &#160;Exports</text>
<g id="clust1" class="cluster">
<title>cluster_AuthModule</title>
<polygon fill="none" stroke="black" stroke-dasharray="1,5" points="8,-70 8,-195 570,-195 570,-70 8,-70"/>
</g>
<g id="clust3" class="cluster">
<title>cluster_AuthModule_imports</title>
<polygon fill="none" stroke="black" points="448,-78 448,-130 562,-130 562,-78 448,-78"/>
</g>
<g id="clust6" class="cluster">
<title>cluster_AuthModule_providers</title>
<polygon fill="none" stroke="black" points="16,-78 16,-130 440,-130 440,-78 16,-78"/>
</g>
<!-- PrismaModule -->
<g id="node1" class="node">
<title>PrismaModule</title>
<polygon fill="#8dd3c7" stroke="black" points="554.43,-122 551.43,-126 530.43,-126 527.43,-122 455.57,-122 455.57,-86 554.43,-86 554.43,-122"/>
<text text-anchor="middle" x="505" y="-99.8" font-family="Times,serif" font-size="14.00">PrismaModule</text>
</g>
<!-- AuthModule -->
<g id="node2" class="node">
<title>AuthModule</title>
<polygon fill="#8dd3c7" stroke="black" points="331.55,-187 328.55,-191 307.55,-191 304.55,-187 244.45,-187 244.45,-151 331.55,-151 331.55,-187"/>
<text text-anchor="middle" x="288" y="-164.8" font-family="Times,serif" font-size="14.00">AuthModule</text>
</g>
<!-- PrismaModule&#45;&gt;AuthModule -->
<g id="edge1" class="edge">
<title>PrismaModule&#45;&gt;AuthModule</title>
<path fill="none" stroke="black" d="M505,-122.11C505,-141.34 505,-169 505,-169 505,-169 341.65,-169 341.65,-169"/>
<polygon fill="black" stroke="black" points="341.65,-165.5 331.65,-169 341.65,-172.5 341.65,-165.5"/>
</g>
<!-- AuthController -->
<g id="node3" class="node">
<title>AuthController</title>
<ellipse fill="#fdb462" stroke="black" cx="362" cy="-104" rx="70.08" ry="18"/>
<text text-anchor="middle" x="362" y="-99.8" font-family="Times,serif" font-size="14.00">AuthController</text>
</g>
<!-- AuthController&#45;&gt;AuthModule -->
<g id="edge2" class="edge">
<title>AuthController&#45;&gt;AuthModule</title>
<path fill="none" stroke="black" d="M311.87,-116.84C311.87,-116.84 311.87,-140.52 311.87,-140.52"/>
<polygon fill="black" stroke="black" points="308.37,-140.52 311.87,-150.52 315.37,-140.52 308.37,-140.52"/>
</g>
<!-- AuthService -->
<g id="node4" class="node">
<title>AuthService</title>
<ellipse fill="#fdb462" stroke="black" cx="215" cy="-104" rx="59.11" ry="18"/>
<text text-anchor="middle" x="215" y="-99.8" font-family="Times,serif" font-size="14.00">AuthService</text>
</g>
<!-- AuthService&#45;&gt;AuthModule -->
<g id="edge3" class="edge">
<title>AuthService&#45;&gt;AuthModule</title>
<path fill="none" stroke="black" d="M259.27,-116.23C259.27,-116.23 259.27,-140.68 259.27,-140.68"/>
<polygon fill="black" stroke="black" points="255.77,-140.68 259.27,-150.68 262.77,-140.68 255.77,-140.68"/>
</g>
<!-- JwtStrategy -->
<g id="node5" class="node">
<title>JwtStrategy</title>
<ellipse fill="#fdb462" stroke="black" cx="81" cy="-104" rx="56.76" ry="18"/>
<text text-anchor="middle" x="81" y="-99.8" font-family="Times,serif" font-size="14.00">JwtStrategy</text>
</g>
<!-- JwtStrategy&#45;&gt;AuthModule -->
<g id="edge4" class="edge">
<title>JwtStrategy&#45;&gt;AuthModule</title>
<path fill="none" stroke="black" d="M81,-122.11C81,-141.34 81,-169 81,-169 81,-169 234.35,-169 234.35,-169"/>
<polygon fill="black" stroke="black" points="234.35,-172.5 244.35,-169 234.35,-165.5 234.35,-172.5"/>
</g>
</g>
</svg>
